<?xml version="1.0" encoding="UTF-8"?>
<!DOCTYPE svg PUBLIC "-//W3C//DTD SVG 1.1//EN" "http://www.w3.org/Graphics/SVG/1.1/DTD/svg11.dtd">
<svg version="1.1" xmlns="http://www.w3.org/2000/svg" xmlns:xlink="http://www.w3.org/1999/xlink" x="0" y="0" width="933" height="825" viewBox="0, 0, 311, 275">
  <g id="Layer_1">
    <path d="M278.069,0.163 C282.647,0.265 286.955,1.681 291.129,3.442 C313.431,13.398 305.793,58.699 301.795,74.741 C295.931,98.266 263.221,166.325 260.101,173.22 C257.558,178.844 242.869,216.079 253.117,233.414 C263.365,250.749 278.254,234.487 284.493,228.927 C290.756,223.345 296.695,220.09 309.047,233.703 C309.047,233.703 315.031,242.643 305.434,249.33 C305.434,249.33 287.14,262.498 278.888,266.471 C270.638,270.447 243.205,289.149 223.404,252.016 C223.398,252.005 223.392,251.993 223.386,251.981 C198.699,284.02 169.554,272.921 169.554,272.921 C169.554,272.921 147.139,265.308 139.281,242.934 C126.566,260.127 108.568,273.235 86.861,274.94 L84.652,274.94 C76.639,275.051 69.055,272.529 62.395,268.176 C61.974,267.883 61.489,267.512 61.127,267.215 C27.019,240.561 32.323,177.55 39.348,139.345 L8.388,137.635 C4.846,136.621 2.716,134.935 1.29,130.948 L0.004,126.394 C-0.11,122.588 2.524,119.42 6.691,119.296 L43.509,119.759 C45.26,112.521 46.554,108.217 46.554,108.217 C46.555,108.216 46.556,108.215 46.557,108.213 C48.699,99.055 51.209,89.734 53.878,81.596 C57.837,69.526 62.274,58.79 67.19,49.39 C72.104,39.992 77.471,32.453 83.293,26.774 C89.112,21.097 95.22,18.258 101.614,18.258 C105.716,18.258 109.463,19.402 112.851,21.693 C116.237,23.983 119.125,27.038 121.511,30.853 C123.895,34.672 125.734,39.134 127.022,44.237 C128.31,49.344 128.954,54.664 128.954,60.197 C128.954,64.874 128.285,69.812 126.95,75.012 C125.612,80.214 123.801,85.511 121.511,90.9 C119.22,96.292 116.541,101.766 113.423,107.29 C110.719,112.08 108.077,116.508 105.576,120.541 L142.412,121.004 C150.468,121.143 152.915,126.082 153.029,129.888 C153.029,129.888 153.248,132.442 152.642,136.218 C152.037,139.995 150.411,144.91 143.707,145.11 L90.999,142.199 C88.931,145.007 87.73,146.509 87.73,146.509 C84.962,150.327 82.171,154.073 79.356,157.746 C76.541,161.421 67.44,171.765 65.717,186.419 C65.53,188.005 65.059,192.193 65.054,198.07 L65.053,198.078 C65.053,198.078 63.484,241.362 84.363,246.151 C93.215,248.181 105.015,246.133 116.207,239.425 C126.262,233.4 133.682,225.326 138.541,211.122 C139.284,208.029 140.254,204.797 141.482,201.417 C159.004,153.208 199.764,146.405 209.777,145.455 C211.427,110.5 217.541,75.557 228.433,52.739 C238.668,33.014 252.019,1.346 278.069,0.163 z M209.425,174.139 C198.392,175.716 175.25,183.703 168.119,222.496 C161.576,269.091 207.74,259.061 216.716,234.038 C212.412,217.909 209.951,196.761 209.425,174.139 z M273.238,33.143 C270.183,33.143 267.416,35.076 264.935,38.94 C262.453,42.805 260.259,47.744 258.351,53.756 C256.441,59.767 254.773,66.401 253.341,73.652 C251.91,80.905 250.715,87.919 249.763,94.693 C248.808,101.47 248.045,107.576 247.472,113.015 C246.9,118.454 246.517,122.319 246.328,124.609 C245.945,129.286 245.633,133.795 245.396,138.135 C245.158,142.479 244.99,146.437 244.896,150.016 C244.8,153.594 244.753,156.721 244.753,159.391 L244.753,166.978 C250.192,154.574 255.202,142.216 259.782,129.905 C261.69,124.658 263.623,119.147 265.58,113.373 C267.534,107.6 269.323,101.803 270.947,95.982 C272.569,90.162 273.975,84.436 275.17,78.804 C276.361,73.176 277.197,67.833 277.674,62.773 C278.247,56.096 278.533,50.799 278.533,46.886 C278.533,41.732 278.08,38.154 277.173,36.15 C276.265,34.146 274.955,33.143 273.238,33.143 z M99.476,48.295 C95.282,49.214 92.96,53.47 90.95,56.905 C81.843,73.12 73.174,112.245 71.426,120.11 L80.698,120.227 C83.391,115.624 86.187,110.672 89.09,105.357 C92.189,99.68 94.981,94.098 97.464,88.609 C99.944,83.124 101.994,77.996 103.618,73.222 C105.24,68.452 106.091,64.54 106.052,61.485 C105.834,57.813 105.031,49.724 100.651,48.43 C100.273,48.319 99.868,48.34 99.476,48.295 z" fill="#1A1919"/>
  </g>
</svg>
